<?xml version="1.0" encoding="UTF-8" standalone="no"?>
<!-- Created with Inkscape (http://www.inkscape.org/) -->
<svg
   xmlns:svg="http://www.w3.org/2000/svg"
   xmlns="http://www.w3.org/2000/svg"
   xmlns:xlink="http://www.w3.org/1999/xlink"
   version="1.0"
   width="744.09448"
   height="1052.3622"
   id="svg2">
  <defs
     id="defs3">
    <linearGradient
       id="linearGradient3603">
      <stop
         style="stop-color:#e14c0f;stop-opacity:0.84536082"
         offset="0"
         id="stop3605" />
      <stop
         style="stop-color:#702607;stop-opacity:0.42352942"
         offset="0.75862068"
         id="stop3611" />
      <stop
         style="stop-color:black;stop-opacity:0"
         offset="1"
         id="stop3607" />
    </linearGradient>
    <linearGradient
       id="linearGradient4691">
      <stop
         style="stop-color:black;stop-opacity:1"
         offset="0"
         id="stop4693" />
      <stop
         style="stop-color:black;stop-opacity:0"
         offset="1"
         id="stop4695" />
    </linearGradient>
    <radialGradient
       cx="403.10687"
       cy="491.01727"
       r="312.49045"
       fx="403.10687"
       fy="491.01727"
       id="radialGradient3609"
       xlink:href="#linearGradient3603"
       gradientUnits="userSpaceOnUse"
       gradientTransform="matrix(0.986119,0,0,1.014076,-1.296398,9.074786)"
       spreadMethod="pad" />
  </defs>
  <g
     id="layer1">
    <path
       d="M 361.8911,171.35604 C 320.53816,172.0667 201.31726,189.15938 104.54735,350.98104 L 104.3911,350.66854 C 104.3911,350.66855 104.42115,351.14988 104.42235,351.16854 C 104.31471,351.34873 104.21744,351.51926 104.10985,351.69979 L 104.4536,351.48104 C 104.75398,356.04269 118.84331,567.92384 265.8286,644.94979 L 268.10985,663.85604 C 212.595,651.34688 105.57093,530.75226 83.391102,405.10604 L 70.828602,436.85604 C 103.3877,556.36657 180.39862,643.52258 268.5161,683.23104 L 270.23485,695.29354 C 228.37938,703.68728 121.85667,615.11732 62.828602,499.26229 L 66.578602,545.63729 C 77.251063,588.0395 166.69007,691.07249 267.2661,709.23104 L 270.0161,722.29354 C 224.12001,725.97322 150.9371,691.25807 80.797352,609.07479 C 93.03905,695.94641 222.46126,741.40911 272.0786,739.38729 L 274.4536,750.48104 C 263.46178,754.52014 209.01871,754.51603 159.6411,723.19979 C 190.06554,773.36921 248.78932,769.99582 278.2036,767.63729 C 291.79216,792.88959 249.81888,777.7435 246.23485,779.76229 C 261.92791,789.23094 267.63302,792.75285 283.5786,790.73104 C 283.67743,803.10391 295.4195,801.42449 301.5161,800.98104 L 282.3286,635.29354 C 90.352865,523.89379 142.66147,220.35401 377.8286,209.66854 C 689.30523,251.72118 572.9457,635.915 439.42235,635.82479 C 450.899,754.0679 348.78499,724.43436 379.54735,659.10604 C 377.29539,663.99257 414.95715,602.21711 369.0161,598.01229 C 344.27735,592.64291 343.82183,625.14952 324.79735,622.63729 C 386.05213,646.19852 321.58723,658.30822 314.98485,739.01229 C 310.10991,795.78672 344.52944,802.58607 371.79735,810.07479 L 437.17235,811.82479 C 431.40454,806.60521 419.56515,799.87029 422.54735,794.29354 C 472.1962,806.54419 488.27795,805.1947 513.6411,781.73104 C 486.62326,781.83881 446.0339,789.80184 439.0161,773.48104 C 500.80784,771.20785 577.59938,771.8078 594.3911,728.10604 C 558.32565,749.40429 512.26902,754.26315 456.2036,753.41854 L 458.0786,739.76229 C 578.2289,721.63449 637.66043,713.51065 659.9536,629.66854 C 596.05627,705.11214 542.8643,710.5419 466.10985,731.69979 L 467.60985,716.69979 C 558.81913,705.02904 617.16844,643.3616 681.23485,570.26229 L 685.5786,518.82479 C 622.7402,613.82072 551.3232,682.36457 473.48485,703.07479 L 474.9536,690.91854 C 580.92477,650.2002 654.0494,528.06101 685.73485,455.19979 C 681.70602,443.05287 677.66993,430.90921 673.6411,418.76229 C 628.46721,533.58272 560.43104,643.39278 473.8286,675.35604 L 473.3286,655.54354 C 575.77378,613.22112 664.03344,394.71365 656.35985,361.41854 C 618.42103,306.26927 559.5657,167.05836 361.8911,171.35604 z M 384.42235,292.48104 C 374.97134,292.94893 363.00858,299.60652 360.2036,313.82479 C 357.55139,314.98019 354.68915,314.99237 351.5786,313.16854 C 348.71931,312.38792 346.99002,299.91791 342.29735,299.13729 C 335.6185,297.74555 327.56992,297.48727 321.5786,299.76229 C 308.71208,303.41236 303.872,326.56021 298.10985,327.91854 C 296.7307,329.03367 293.0411,329.45972 290.5161,328.51229 C 285.85214,327.87043 284.878,320.57081 279.29735,320.38729 C 234.22257,327.30812 248.96475,395.86178 245.1411,420.88729 C 248.5746,443.69746 274.6763,454.82812 280.17235,441.19979 C 280.85575,418.48094 279.94723,383.61661 282.23485,359.29354 C 288.11285,358.3461 292.83609,359.23043 295.73485,362.63729 C 295.3488,404.39243 289.06031,462.82407 321.60985,461.32479 C 354.1594,459.82551 335.2409,386.01575 341.8286,350.19979 C 345.819,348.22504 352.12989,350.85154 355.2036,351.85604 C 364.08302,390.90324 349.95714,468.40114 381.8286,468.98104 C 413.93252,469.56518 398.9702,387.73507 407.54735,347.10604 L 419.54735,349.41854 L 421.42235,453.94979 C 422.43679,464.96108 433.09524,467.06383 440.29735,466.38729 C 451.47178,459.82865 455.09179,442.47736 461.4536,429.73104 L 459.67235,351.85604 C 463.58965,351.1031 467.27594,351.96307 469.35985,353.73104 L 473.04735,434.85604 C 466.10112,451.66479 462.12926,470.31835 446.0161,478.41854 C 432.7294,479.18519 413.2716,467.78724 397.92235,471.07479 C 381.58003,481.31393 383.56614,500.03376 390.1411,503.16854 C 403.12756,502.09905 414.25886,501.01919 424.9536,502.69979 C 435.0754,503.61649 444.99691,510.8925 448.4536,510.94979 C 451.7957,511.00708 469.99515,506.82491 474.23485,502.69979 L 510.54735,434.41854 C 494.05644,344.23898 501.63268,313.87709 460.3911,306.19979 C 443.1363,303.79346 437.12477,310.09536 431.3286,319.60604 C 428.20613,320.7137 424.15943,320.43595 420.5786,318.79354 C 413.34294,311.39317 407.47094,293.46457 384.42235,292.48104 z M 361.48485,608.23104 C 364.9637,608.23105 367.7661,611.4958 367.7661,615.51229 C 367.76611,619.52879 364.9637,622.79354 361.48485,622.79354 C 358.006,622.79355 355.17235,619.52878 355.17235,615.51229 C 355.17234,611.49581 358.006,608.23104 361.48485,608.23104 z "
       style="opacity:0.89302326;fill:url(#radialGradient3609);fill-opacity:1;fill-rule:nonzero;stroke:black;stroke-width:0;stroke-linecap:butt;stroke-linejoin:miter;stroke-miterlimit:4;stroke-dasharray:none;stroke-dashoffset:0;stroke-opacity:1"
       id="path2329" />
  </g>
</svg>
